<svg width="33" height="14" viewBox="0 0 33 14" fill="none" xmlns="http://www.w3.org/2000/svg">
<path fill-rule="evenodd" clip-rule="evenodd" d="M6.10315 2.16901C5.7311 2.62777 5.13583 2.98961 4.54056 2.93791C4.46615 2.31762 4.75758 1.65856 5.09863 1.25149C5.47067 0.779807 6.12175 0.443814 6.64881 0.417969C6.71082 1.06411 6.46899 1.69733 6.10315 2.16901ZM6.64246 3.06066C6.11804 3.02921 5.63952 3.225 5.25302 3.38315C5.00429 3.48493 4.79366 3.57111 4.63342 3.57111C4.4536 3.57111 4.23428 3.48032 3.98803 3.37838L3.98802 3.37838C3.66536 3.24481 3.29646 3.0921 2.90961 3.09943C2.02291 3.11235 1.19821 3.63572 0.745551 4.46924C-0.184561 6.13628 0.503722 8.60454 1.40283 9.96143C1.84308 10.6334 2.37015 11.37 3.06463 11.3442C3.37016 11.3322 3.58994 11.235 3.8174 11.1344C4.07926 11.0186 4.35128 10.8983 4.77604 10.8983C5.18606 10.8983 5.4462 11.0155 5.69591 11.1279C5.93334 11.2349 6.16135 11.3375 6.49985 11.3312C7.21913 11.3183 7.67179 10.6593 8.11204 9.98728C8.58714 9.26606 8.79593 8.56219 8.82761 8.45536L8.83133 8.443C8.83057 8.44221 8.8247 8.43941 8.81434 8.43447C8.65551 8.3587 7.4416 7.77961 7.42996 6.22674C7.41827 4.92334 8.39281 4.26295 8.54622 4.15899C8.55555 4.15266 8.56185 4.1484 8.56469 4.14617C7.94462 3.18989 6.9773 3.08651 6.64246 3.06066ZM11.6217 11.2602V1.18693H15.2492C17.1218 1.18693 18.4301 2.5309 18.4301 4.49517C18.4301 6.45943 17.097 7.81632 15.1995 7.81632H13.1223V11.2602H11.6217ZM13.1221 2.50493H14.8521C16.1542 2.50493 16.8983 3.2286 16.8983 4.5015C16.8983 5.77439 16.1542 6.50453 14.8459 6.50453H13.1221V2.50493ZM23.3845 10.0519C22.9876 10.8402 22.1133 11.3377 21.1708 11.3377C19.7756 11.3377 18.8021 10.4719 18.8021 9.16665C18.8021 7.87437 19.7446 7.13131 21.487 7.02147L23.3597 6.90516V6.34949C23.3597 5.52889 22.845 5.08305 21.9273 5.08305C21.1708 5.08305 20.6189 5.49012 20.5073 6.11041H19.1555C19.1989 4.80521 20.3771 3.85539 21.9707 3.85539C23.6883 3.85539 24.8044 4.79229 24.8044 6.2461V11.2601H23.4155V10.0519H23.3845ZM21.5739 10.1424C20.774 10.1424 20.2656 9.74183 20.2656 9.128C20.2656 8.49479 20.7554 8.12649 21.6917 8.06833L23.3597 7.95849V8.52709C23.3597 9.47046 22.5908 10.1424 21.5739 10.1424ZM29.4116 11.6543C28.8101 13.4182 28.1218 13.9998 26.6585 13.9998C26.5468 13.9998 26.1748 13.9868 26.088 13.961V12.7527C26.181 12.7656 26.4104 12.7786 26.5282 12.7786C27.1917 12.7786 27.5638 12.4878 27.7932 11.7318L27.9296 11.286L25.3873 3.9523H26.9561L28.7233 9.90325H28.7543L30.5215 3.9523H32.0469L29.4116 11.6543Z" fill="black"/>
</svg>
