<svg width="18" height="111" viewBox="0 0 18 111" fill="none" xmlns="http://www.w3.org/2000/svg">
<path d="M11.7808 19.7005L11.1906 19.2377L11.7808 19.7005ZM6.21921 19.7005L5.62903 20.1633L6.21921 19.7005ZM9 22.0055V21.2555V22.0055ZM16.25 9.6087C16.25 10.8352 15.6104 12.4764 14.6037 14.256C13.6137 16.0063 12.3342 17.7794 11.1906 19.2377L12.371 20.1633C13.5371 18.6762 14.8672 16.837 15.9094 14.9945C16.9349 13.1814 17.75 11.2494 17.75 9.6087H16.25ZM6.80938 19.2377C5.66578 17.7794 4.38628 16.0063 3.39625 14.256C2.38962 12.4764 1.75 10.8352 1.75 9.6087H0.25C0.25 11.2494 1.06511 13.1814 2.09064 14.9945C3.13277 16.837 4.46288 18.6762 5.62903 20.1633L6.80938 19.2377ZM1.75 9.6087C1.75 5.21571 5.04678 1.75 9 1.75V0.25C4.11666 0.25 0.25 4.49277 0.25 9.6087H1.75ZM9 1.75C12.9532 1.75 16.25 5.21571 16.25 9.6087H17.75C17.75 4.49277 13.8833 0.25 9 0.25V1.75ZM11.1906 19.2377C10.5717 20.027 10.1641 20.5426 9.79918 20.8741C9.46635 21.1764 9.24418 21.2555 9 21.2555V22.7555C9.72906 22.7555 10.2948 22.4504 10.8078 21.9844C11.2886 21.5476 11.7849 20.9107 12.371 20.1633L11.1906 19.2377ZM5.62903 20.1633C6.21511 20.9107 6.71136 21.5476 7.19224 21.9844C7.70524 22.4504 8.27094 22.7555 9 22.7555V21.2555C8.75582 21.2555 8.53365 21.1764 8.20082 20.8741C7.83587 20.5426 7.42834 20.027 6.80938 19.2377L5.62903 20.1633ZM5.25 10C5.25 12.0711 6.92893 13.75 9 13.75V12.25C7.75736 12.25 6.75 11.2426 6.75 10H5.25ZM9 13.75C11.0711 13.75 12.75 12.0711 12.75 10H11.25C11.25 11.2426 10.2426 12.25 9 12.25V13.75ZM12.75 10C12.75 7.92893 11.0711 6.25 9 6.25V7.75C10.2426 7.75 11.25 8.75736 11.25 10H12.75ZM9 6.25C6.92893 6.25 5.25 7.92893 5.25 10H6.75C6.75 8.75736 7.75736 7.75 9 7.75V6.25Z" fill="#4871FF"/>
<path d="M9 22L9 89" stroke="#4871FF" stroke-linecap="square" stroke-dasharray="5 5"/>
<path d="M11.7808 107.7L11.1906 107.238L11.7808 107.7ZM6.21921 107.7L5.62903 108.163L6.21921 107.7ZM9 110.005V109.255V110.005ZM16.25 97.6087C16.25 98.8352 15.6104 100.476 14.6037 102.256C13.6137 104.006 12.3342 105.779 11.1906 107.238L12.371 108.163C13.5371 106.676 14.8672 104.837 15.9094 102.995C16.9349 101.181 17.75 99.2494 17.75 97.6087H16.25ZM6.80938 107.238C5.66578 105.779 4.38628 104.006 3.39625 102.256C2.38962 100.476 1.75 98.8352 1.75 97.6087H0.25C0.25 99.2494 1.06511 101.181 2.09064 102.995C3.13277 104.837 4.46288 106.676 5.62903 108.163L6.80938 107.238ZM1.75 97.6087C1.75 93.2157 5.04678 89.75 9 89.75V88.25C4.11666 88.25 0.25 92.4928 0.25 97.6087H1.75ZM9 89.75C12.9532 89.75 16.25 93.2157 16.25 97.6087H17.75C17.75 92.4928 13.8833 88.25 9 88.25V89.75ZM11.1906 107.238C10.5717 108.027 10.1641 108.543 9.79918 108.874C9.46635 109.176 9.24418 109.255 9 109.255V110.755C9.72906 110.755 10.2948 110.45 10.8078 109.984C11.2886 109.548 11.7849 108.911 12.371 108.163L11.1906 107.238ZM5.62903 108.163C6.21511 108.911 6.71136 109.548 7.19224 109.984C7.70524 110.45 8.27094 110.755 9 110.755V109.255C8.75582 109.255 8.53365 109.176 8.20082 108.874C7.83587 108.543 7.42834 108.027 6.80938 107.238L5.62903 108.163ZM5.25 98C5.25 100.071 6.92893 101.75 9 101.75V100.25C7.75736 100.25 6.75 99.2426 6.75 98H5.25ZM9 101.75C11.0711 101.75 12.75 100.071 12.75 98H11.25C11.25 99.2426 10.2426 100.25 9 100.25V101.75ZM12.75 98C12.75 95.9289 11.0711 94.25 9 94.25V95.75C10.2426 95.75 11.25 96.7574 11.25 98H12.75ZM9 94.25C6.92893 94.25 5.25 95.9289 5.25 98H6.75C6.75 96.7574 7.75736 95.75 9 95.75V94.25Z" fill="#4871FF"/>
</svg>
