<svg width="34" height="14" viewBox="0 0 34 14" fill="none" xmlns="http://www.w3.org/2000/svg">
<path fill-rule="evenodd" clip-rule="evenodd" d="M15.6819 10.9509V6.84243H17.8024C18.6713 6.84243 19.4047 6.55127 20.0026 5.97705L20.146 5.83148C21.2382 4.6426 21.1664 2.79053 20.0026 1.69061C19.4206 1.10831 18.6235 0.792889 17.8024 0.809064H14.3984V10.9509H15.6819ZM15.682 5.59692V2.05454H17.8347C18.2971 2.05454 18.7356 2.23247 19.0625 2.55597C19.7562 3.23533 19.7721 4.3676 19.1024 5.07122C18.7755 5.41899 18.3131 5.61309 17.8347 5.59692H15.682ZM26.133 4.55372C25.583 4.0442 24.8336 3.7854 23.885 3.7854C22.6653 3.7854 21.7486 4.23831 21.1427 5.13603L22.2747 5.85583C22.6892 5.24117 23.2552 4.93384 23.9727 4.93384C24.4271 4.93384 24.8655 5.10368 25.2083 5.41101C25.5431 5.70217 25.7344 6.12272 25.7344 6.56754V6.86678C25.2402 6.59181 24.6184 6.44623 23.8531 6.44623C22.9603 6.44623 22.2428 6.65651 21.7087 7.08515C21.1746 7.51379 20.9036 8.07993 20.9036 8.79973C20.8876 9.45482 21.1666 10.0776 21.6609 10.4981C22.1631 10.951 22.8008 11.1775 23.5502 11.1775C24.435 11.1775 25.1365 10.7812 25.6707 9.98861H25.7265V10.951H26.9541V6.67268C26.9541 5.77496 26.6831 5.06324 26.133 4.55372ZM22.6497 9.67317C22.3866 9.47907 22.2271 9.16365 22.2271 8.82397C22.2271 8.44385 22.4025 8.12844 22.7454 7.87772C23.0962 7.62701 23.5347 7.4976 24.0529 7.4976C24.7705 7.48952 25.3286 7.65127 25.7273 7.97477C25.7273 8.52473 25.512 9.0019 25.0894 9.40628C24.7067 9.79449 24.1885 10.0129 23.6463 10.0129C23.2875 10.0209 22.9367 9.89963 22.6497 9.67317ZM29.7124 14L34.0012 4.01184H32.6061L30.6212 8.99381H30.5973L28.5645 4.01184H27.1694L29.9834 10.5062L28.3891 14H29.7124Z" fill="#3C4043"/>
<path d="M11.2506 5.95277C11.2506 5.55647 11.2188 5.16018 11.155 4.77197H5.74219V7.01224H8.84319C8.71564 7.73204 8.30111 8.37905 7.69526 8.78343V10.2392H9.5447C10.6289 9.22825 11.2506 7.73204 11.2506 5.95277Z" fill="#4285F4"/>
<path d="M5.74105 11.6465C7.28756 11.6465 8.59493 11.1288 9.54356 10.2392L7.69412 8.78343C7.17596 9.13929 6.51431 9.34148 5.74105 9.34148C4.24237 9.34148 2.97486 8.31435 2.52048 6.93945H0.615234V8.44375C1.58778 10.409 3.57274 11.6465 5.74105 11.6465Z" fill="#34A853"/>
<path d="M2.52146 6.93957C2.28227 6.21978 2.28227 5.43528 2.52146 4.70739V3.21118H0.615913C-0.205304 4.85297 -0.205304 6.794 0.615913 8.43578L2.52146 6.93957Z" fill="#FBBC04"/>
<path d="M5.74105 2.30532C6.56214 2.28915 7.35134 2.60457 7.94124 3.17879L9.58342 1.51274C8.53912 0.526047 7.16799 -0.0158233 5.74105 0.000351981C3.57274 0.000351981 1.58778 1.24585 0.615234 3.21114L2.52048 4.71544C2.97486 3.33245 4.24237 2.30532 5.74105 2.30532Z" fill="#EA4335"/>
</svg>
