<svg width="235" height="105" viewBox="0 0 235 105" fill="none" xmlns="http://www.w3.org/2000/svg">
<g clip-path="url(#clip0_0_6968)">
<path d="M79.8793 41.9404L86.7001 49.3537L72.2683 49.3175C59.642 59.9658 46.1038 64.1079 40.4685 58.5025C36.5049 54.56 37.3864 46.7294 41.9822 38.0583C39.9579 43.4944 40.0065 48.1504 42.6205 50.7505C46.1646 54.2698 53.4899 53.1209 61.4232 48.483C65.253 46.2457 69.2227 43.1981 72.9674 39.4672C73.7881 38.6509 74.5723 37.8286 75.3261 36.9941C85.1499 26.1401 89.1865 14.1372 84.311 9.28772C82.6879 7.67322 80.2684 7.03831 77.3626 7.27414C82.9128 5.70197 87.6059 6.10106 90.378 8.85839C96.2321 14.6815 91.5147 28.9821 79.8793 41.9404Z" fill="#262262"/>
<path d="M95.1562 13.9197C94.5604 10.1949 93.0042 7.17757 90.4327 5.19423C83.6545 -0.0301984 71.6361 3.39229 59.9946 12.7648C72.6027 1.65081 85.5633 -3.07778 91.8005 2.09827C94.6942 4.49885 95.7398 8.68927 95.1562 13.9197Z" fill="#F7941D"/>
<path d="M22.6994 13.2002C24.6265 13.2002 26.59 13.3695 28.59 13.7142C30.2253 13.9863 31.3986 14.3672 32.1038 14.8449C32.8089 15.3226 33.1615 15.9817 33.1615 16.8222C33.1615 17.3543 33.0339 17.7716 32.7725 18.0679C32.5171 18.3702 31.9518 18.733 31.0946 19.1623C30.0977 19.6763 29.5262 20.281 29.3742 20.9764C29.2283 21.6717 29.0946 24.3626 28.973 29.0549C28.9244 33.59 28.8758 36.3171 28.8332 37.2241C28.7906 38.1311 28.6812 39.0139 28.511 39.8726C28.0125 42.3699 27.0034 44.3351 25.4897 45.7561C24.2496 46.9231 22.6568 47.8362 20.7115 48.5074C18.7662 49.1725 16.7175 49.5112 14.5655 49.5112C12.6567 49.5112 10.7418 49.2632 8.82078 48.7674C6.89979 48.2716 5.23411 47.5883 3.82376 46.7115C2.65049 45.9919 1.72039 45.0184 1.03345 43.7969C0.346509 42.5694 0 41.2694 0 39.8786C0 38.1674 0.54104 36.7464 1.6292 35.6277C2.71128 34.503 4.073 33.9467 5.70828 33.9467C7.34356 33.9467 8.66881 34.4184 9.78736 35.3617C10.9059 36.3231 11.4652 37.5022 11.4652 38.9051C11.4652 39.2619 11.3618 39.8665 11.1552 40.701C11.1187 40.8703 11.1065 41.0577 11.1065 41.2633C11.1065 41.8136 11.3071 42.255 11.7023 42.5997C12.0974 42.9443 12.6202 43.1137 13.2768 43.1137C14.4318 43.1137 15.3619 42.5997 16.0671 41.5717C16.7723 40.5438 17.1248 39.1893 17.1248 37.5143L17.1005 35.1742L17.0519 28.8795C16.8999 25.0579 16.7783 22.8146 16.7054 22.1373C16.6264 21.4601 16.4318 20.9099 16.1218 20.4805C15.8665 20.1359 15.6355 19.9182 15.4348 19.8154C15.2342 19.7126 14.6993 19.5493 13.8239 19.3256C13.4105 19.2409 13.0579 18.9991 12.7661 18.606C12.4743 18.213 12.3284 17.7958 12.3284 17.3483C12.3284 16.4231 12.6932 15.6854 13.4287 15.1291C14.1582 14.5728 15.3558 14.1254 17.0033 13.7807C18.8452 13.4058 20.748 13.2183 22.7115 13.2183L22.6994 13.2002Z" fill="#F7941D"/>
<path d="M63.9035 21.3571L61.1375 24.0056C60.1223 24.9671 59.6116 25.8378 59.6116 26.6239C59.6116 27.0532 59.7271 27.4825 59.9581 27.9058C60.1891 28.3351 60.6268 28.9156 61.2651 29.6533L70.9248 40.7734C71.7881 41.765 72.3777 42.3939 72.706 42.66C73.0343 42.926 73.5206 43.2042 74.1772 43.4944C75.1073 43.8875 75.7638 44.3228 76.1529 44.8066C76.5419 45.2843 76.7365 45.9131 76.7365 46.6811C76.7365 48.4951 75.4355 49.4021 72.8397 49.4021H63.0524C62.3837 49.4021 61.8487 49.257 61.4657 48.9668C61.0767 48.6765 60.4627 47.9569 59.6177 46.8081C58.2742 44.9759 56.4991 42.8716 54.2985 40.4892C53.3319 39.4612 52.6571 38.79 52.2741 38.4756C51.8851 38.1612 51.5264 37.9979 51.2042 37.9979C50.2072 37.9979 49.7087 38.9291 49.7087 40.7975C49.7087 42.3213 50.037 43.3735 50.6875 43.96C50.8091 44.0447 51.0826 44.2321 51.5142 44.5224C52.4443 45.121 52.9064 45.8648 52.9064 46.7597C52.9064 47.8904 52.1465 48.7007 50.6328 49.1844C49.1191 49.6742 46.5719 49.9161 42.9913 49.9161C39.8059 49.9161 37.4837 49.7287 36.0186 49.3538C35.3985 49.1844 34.894 48.87 34.5049 48.4165C34.1158 47.963 33.9213 47.4551 33.9213 46.8867C33.9213 45.9796 34.438 45.1996 35.4715 44.5466C35.9335 44.2382 36.2678 43.8995 36.4685 43.5307C36.6691 43.1618 36.8514 42.539 37.0217 41.6683C37.3682 39.7333 37.5384 36.7522 37.5384 32.7311C37.5384 27.936 37.356 24.5377 36.9973 22.5363C36.8575 21.7139 36.6691 21.1213 36.432 20.7645C36.1888 20.4078 35.7694 20.0571 35.1675 19.7124C34.201 19.1621 33.7207 18.4002 33.7207 17.4267C33.7207 16.6044 34.0247 15.9453 34.6265 15.4494C35.2283 14.9536 36.1949 14.5787 37.5201 14.3187C39.277 13.974 41.4776 13.8047 44.1342 13.8047C46.7908 13.8047 48.8455 14.0587 50.1525 14.5726C51.3258 15.0503 51.9094 15.909 51.9094 17.1425C51.9094 17.6565 51.8182 18.0556 51.6358 18.3398C51.4535 18.624 50.9854 19.0654 50.2255 19.664C49.9519 19.9059 49.6966 20.4743 49.4656 21.3874C49.2346 22.2944 49.1191 23.1833 49.1191 24.06C49.1191 25.4992 49.4474 26.2187 50.0978 26.2187C50.493 26.2187 50.8759 26.0494 51.2468 25.7048C51.6176 25.3601 52.3592 24.5075 53.4778 23.1349C54.7666 21.5446 55.417 20.4562 55.417 19.8757C55.417 19.5673 55.2529 19.1077 54.9246 18.4909C54.6997 18.0616 54.5903 17.6686 54.5903 17.3118C54.5903 16.042 55.2772 15.1471 56.6572 14.6271C58.0371 14.107 60.3837 13.841 63.7089 13.841C66.3594 13.841 68.323 14.0103 69.5996 14.3549C71.168 14.7843 71.9522 15.6913 71.9522 17.076C71.9522 17.6263 71.7881 18.1342 71.4598 18.6058C71.1315 19.0775 70.7303 19.3798 70.244 19.5189C69.8853 19.6398 69.0464 19.7064 67.7394 19.7245C66.8275 19.7426 66.1406 19.8515 65.6846 20.045C65.2287 20.2445 64.639 20.6799 63.9156 21.3692L63.9035 21.3571Z" fill="#009444"/>
<path d="M113.266 49.2092L109.807 49.2334C107.381 49.2696 105.606 49.318 104.487 49.3845C103.49 49.4692 102.773 49.5115 102.342 49.5115C101.29 49.5115 100.457 49.2454 99.8369 48.7133C99.2351 48.1812 98.9312 47.5463 98.9312 46.8146C98.9312 46.3369 99.0406 45.956 99.2655 45.6839C99.4904 45.4118 100.031 44.9825 100.895 44.402C101.393 44.0573 101.74 43.5252 101.928 42.7935C102.117 42.0679 102.323 40.5018 102.548 38.1073C102.876 34.3764 103.041 29.7748 103.041 24.3145C103.041 22.3131 102.907 20.9767 102.639 20.3176C102.372 19.6585 101.746 19.1143 100.767 18.685C99.6302 18.2073 99.0649 17.5059 99.0649 16.5807C99.0649 15.8249 99.4053 15.2081 100.086 14.7304C100.767 14.2527 101.642 14.0108 102.706 14.0108C103.29 14.0108 104.038 14.035 104.956 14.0894C106.469 14.1559 108.105 14.1922 109.861 14.1922C111.15 14.1922 113.691 14.1438 117.479 14.0411C118.664 14.0048 119.74 13.9927 120.707 13.9927C122.998 13.9927 124.84 14.1741 126.245 14.5429C127.649 14.9118 128.865 15.5346 129.898 16.4053C131.588 17.8263 132.427 19.725 132.427 22.1075C132.427 23.2866 132.178 24.4415 131.679 25.5602C131.181 26.6788 130.506 27.5738 129.667 28.245C129.065 28.7227 128.761 29.1641 128.761 29.5571C128.761 29.9864 129.12 30.3432 129.843 30.6334C131.254 31.1958 132.536 32.1512 133.691 33.4815C134.877 34.8662 135.473 36.6077 135.473 38.6938C135.473 41.1609 134.567 43.4103 132.761 45.4481C130.366 48.1389 126.828 49.4813 122.147 49.4813C121.509 49.4813 119.947 49.4389 117.448 49.3543C115.175 49.2696 113.782 49.2152 113.266 49.2031V49.2092ZM115.047 21.3395V26.6305C115.047 27.471 115.156 28.0575 115.369 28.4022C115.582 28.7468 115.959 28.9161 116.494 28.9161C117.77 28.9161 118.706 28.5292 119.308 27.7491C119.91 26.9691 120.214 25.7476 120.214 24.0908C120.214 22.434 119.904 21.2367 119.284 20.3539C118.664 19.4711 117.789 19.0297 116.652 19.0297C116.05 19.0297 115.63 19.199 115.399 19.5315C115.168 19.8641 115.053 20.4688 115.053 21.3456L115.047 21.3395ZM115.047 36.136V38.5789C115.047 40.8223 115.211 42.3098 115.539 43.0475C115.868 43.7852 116.53 44.1541 117.527 44.1541C120.141 44.1541 121.454 42.6303 121.454 39.5827C121.454 35.7793 119.989 33.8806 117.065 33.8806C116.305 33.8806 115.782 34.0438 115.491 34.3704C115.199 34.6969 115.053 35.2895 115.053 36.1421L115.047 36.136Z" fill="#262262"/>
<path d="M149.211 23.8066C150.123 23.8066 150.676 23.9336 150.877 24.1936C151.078 24.4536 151.254 25.27 151.406 26.6607C151.491 27.4166 151.759 27.7915 152.208 27.7915C152.555 27.7915 152.877 27.5436 153.187 27.0477C154.567 24.9072 156.367 23.8369 158.585 23.8369C160.154 23.8369 161.437 24.3448 162.433 25.3546C162.914 25.8505 163.309 26.4914 163.619 27.2715C163.929 28.0515 164.087 28.8013 164.087 29.5209C164.087 30.3251 163.899 31.1535 163.516 32C163.139 32.8466 162.646 33.548 162.044 34.0922C160.944 35.1383 159.588 35.6583 157.99 35.6583C157.108 35.6583 156.373 35.5072 155.783 35.1988C155.187 34.8904 154.409 34.2676 153.449 33.3243C153.084 32.9675 152.749 32.7861 152.439 32.7861C151.959 32.7861 151.643 33.0582 151.497 33.5964C151.351 34.1346 151.278 35.2714 151.278 37.0007C151.278 39.5888 151.376 41.3484 151.564 42.2917C151.686 42.8057 151.85 43.1624 152.069 43.3559C152.281 43.5555 152.743 43.755 153.449 43.9606C154.999 44.4201 155.771 45.2304 155.771 46.3733C155.771 47.0747 155.522 47.6854 155.023 48.2115C154.525 48.7315 153.862 49.0822 153.035 49.2515C151.382 49.5962 148.956 49.7655 145.752 49.7655C142.549 49.7655 140.391 49.4994 138.804 48.9673C137.394 48.4896 136.688 47.6552 136.688 46.4761C136.688 45.5872 137.205 44.789 138.239 44.0876C138.737 43.761 139.084 43.4648 139.272 43.2047C139.461 42.9387 139.588 42.5759 139.661 42.1103C139.935 40.5502 140.075 37.6659 140.075 33.4513C140.075 32.6833 139.989 32.127 139.819 31.7945C139.649 31.4619 139.302 31.1898 138.786 30.9842C137.564 30.5065 136.95 29.8111 136.95 28.9041C136.95 28.0817 137.369 27.3742 138.214 26.7877C139.059 26.1951 140.47 25.6086 142.451 25.0281C145.102 24.242 147.357 23.8369 149.218 23.8187L149.211 23.8066Z" fill="#262262"/>
<path d="M180.744 23.625C183.893 23.625 186.659 24.4413 189.036 26.0679C190.738 27.2349 192.112 28.7466 193.139 30.6151C194.203 32.5682 194.738 34.606 194.738 36.7284C194.738 40.4472 193.024 43.6036 189.601 46.2098C186.33 48.695 182.586 49.9346 178.367 49.9346C174.148 49.9346 170.92 48.7675 168.373 46.4395C165.892 44.178 164.652 41.2332 164.652 37.6052C164.652 33.5659 166.166 30.2583 169.2 27.6884C172.367 24.9855 176.215 23.631 180.744 23.631V23.625ZM178.677 29.5569C177.917 29.5569 177.309 29.8351 176.853 30.3914C176.397 30.9477 176.166 31.6854 176.166 32.6105C176.166 33.6385 176.361 35.0353 176.75 36.813C177.139 38.5848 177.595 40.1569 178.13 41.5235C178.665 42.9263 179.534 43.6278 180.738 43.6278C182.27 43.6278 183.036 42.6603 183.036 40.7253C183.036 39.2862 182.841 37.6536 182.452 35.8214C182.063 33.9892 181.595 32.5017 181.048 31.3528C180.476 30.1858 179.686 29.5871 178.671 29.5569H178.677Z" fill="#262262"/>
<path d="M203.261 13.4785C205.085 13.4785 206.586 14.186 207.753 15.613C208.787 16.8647 209.303 18.3522 209.303 20.0816C209.303 22.1375 208.775 24.2297 207.717 26.3642C206.659 28.4987 205.182 30.4519 203.285 32.2357C202.233 33.2092 201.255 33.699 200.343 33.699C199.723 33.699 199.17 33.5297 198.677 33.1971C198.185 32.8645 197.942 32.4836 197.942 32.0542C197.942 31.8003 198.112 31.504 198.458 31.1835C199.559 30.0528 200.331 29.1155 200.768 28.3718C201.206 27.628 201.425 26.8661 201.425 26.0982C201.425 25.5479 201.133 25.0642 200.55 24.6348C199.461 23.7762 198.695 22.9538 198.239 22.1677C197.784 21.3817 197.559 20.4444 197.559 19.3681C197.559 17.675 198.094 16.2721 199.17 15.1656C200.246 14.059 201.607 13.5027 203.261 13.4846V13.4785Z" fill="#262262"/>
<path d="M222.349 23.6492C223.212 23.6492 224.611 23.8366 226.556 24.2115C226.951 24.2781 227.279 24.3143 227.535 24.3143C227.826 24.3143 228.398 24.1632 229.237 23.8548C229.632 23.7036 229.966 23.625 230.246 23.625C231.036 23.625 231.839 24.1329 232.647 25.1427C233.304 25.947 233.833 26.8298 234.246 27.7912C234.659 28.7527 234.866 29.5811 234.866 30.2825C234.866 30.9839 234.623 31.5342 234.143 31.9938C233.662 32.4473 233.061 32.671 232.337 32.671C231.735 32.671 231.194 32.5259 230.72 32.2356C230.246 31.9454 229.486 31.3044 228.434 30.3067C227.334 29.2425 226.422 28.7164 225.699 28.7164C225.219 28.7164 224.799 28.8918 224.446 29.2425C224.094 29.5932 223.918 30.0104 223.918 30.4881C223.918 31.3286 224.726 32.1147 226.343 32.8524C229.255 34.1525 231.48 35.5735 233.03 37.1154C234.337 38.4154 234.994 40.0118 234.994 41.8923C234.994 44.2748 233.942 46.2581 231.845 47.8545C230.039 49.2392 227.826 49.9346 225.206 49.9346C224.532 49.9346 223.31 49.8257 221.541 49.602C219.869 49.4146 218.933 49.3178 218.726 49.3178C218.501 49.3178 218.246 49.342 217.954 49.3964C217.456 49.4629 217.091 49.4992 216.872 49.4992C216.063 49.4992 215.425 49.2936 214.963 48.8824C214.258 48.2475 213.601 47.2498 213 45.8893C212.398 44.5287 212.094 43.3617 212.094 42.3821C212.094 40.8039 212.714 40.0178 213.954 40.0178C214.434 40.0178 214.878 40.1751 215.285 40.4955C215.693 40.81 216.538 41.6565 217.826 43.0231C218.532 43.7789 219.115 44.2929 219.583 44.5771C220.051 44.8613 220.55 45.0004 221.079 45.0004C221.644 45.0004 222.1 44.8492 222.446 44.5529C222.793 44.2506 222.963 43.8576 222.963 43.3557C222.963 42.5877 222.301 41.8803 220.975 41.2514C218.203 39.8969 216.203 38.5061 214.969 37.067C213.735 35.6279 213.121 33.965 213.121 32.0845C213.121 30.0467 213.747 28.2931 215.006 26.8177C216.799 24.7134 219.243 23.6613 222.337 23.6613L222.349 23.6492Z" fill="#262262"/>
</g>
<path d="M72.1187 79V65.9091H76.542C77.5689 65.9091 78.4084 66.0945 79.0604 66.4652C79.7167 66.8317 80.2025 67.3281 80.5178 67.9545C80.8331 68.581 80.9908 69.2798 80.9908 70.0511C80.9908 70.8224 80.8331 71.5234 80.5178 72.1541C80.2067 72.7848 79.7252 73.2876 79.0732 73.6626C78.4212 74.0334 77.586 74.2188 76.5675 74.2188H73.3971V72.8125H76.5164C77.2195 72.8125 77.7841 72.6911 78.2103 72.4482C78.6364 72.2053 78.9454 71.8771 79.1371 71.4638C79.3331 71.0462 79.4312 70.5753 79.4312 70.0511C79.4312 69.527 79.3331 69.0582 79.1371 68.6449C78.9454 68.2315 78.6343 67.9077 78.2039 67.6733C77.7735 67.4347 77.2025 67.3153 76.4908 67.3153H73.7039V79H72.1187ZM96.7854 79H95.1235L99.9303 65.9091H101.567L106.374 79H104.712L100.8 67.9801H100.697L96.7854 79ZM97.3991 73.8864H104.098V75.2926H97.3991V73.8864ZM132.371 70H130.786C130.692 69.544 130.528 69.1435 130.294 68.7983C130.064 68.4531 129.783 68.1634 129.45 67.929C129.122 67.6903 128.758 67.5114 128.357 67.392C127.957 67.2727 127.539 67.2131 127.104 67.2131C126.312 67.2131 125.594 67.4134 124.95 67.8139C124.311 68.2145 123.802 68.8047 123.423 69.5845C123.048 70.3643 122.86 71.321 122.86 72.4545C122.86 73.5881 123.048 74.5447 123.423 75.3246C123.802 76.1044 124.311 76.6946 124.95 77.0952C125.594 77.4957 126.312 77.696 127.104 77.696C127.539 77.696 127.957 77.6364 128.357 77.517C128.758 77.3977 129.122 77.2209 129.45 76.9865C129.783 76.7479 130.064 76.456 130.294 76.1108C130.528 75.7614 130.692 75.3608 130.786 74.9091H132.371C132.252 75.5781 132.035 76.1768 131.719 76.7053C131.404 77.2337 131.012 77.6832 130.543 78.054C130.075 78.4205 129.548 78.6996 128.964 78.8913C128.385 79.0831 127.765 79.179 127.104 79.179C125.988 79.179 124.995 78.9062 124.126 78.3608C123.256 77.8153 122.572 77.0398 122.074 76.0341C121.575 75.0284 121.326 73.8352 121.326 72.4545C121.326 71.0739 121.575 69.8807 122.074 68.875C122.572 67.8693 123.256 67.0938 124.126 66.5483C124.995 66.0028 125.988 65.7301 127.104 65.7301C127.765 65.7301 128.385 65.826 128.964 66.0178C129.548 66.2095 130.075 66.4908 130.543 66.8615C131.012 67.228 131.404 67.6754 131.719 68.2038C132.035 68.728 132.252 69.3267 132.371 70ZM148.973 79V65.9091H150.558V72.4034H150.712L156.592 65.9091H158.663L153.166 71.8153L158.663 79H156.746L152.195 72.9148L150.558 74.7557V79H148.973ZM174.755 79V65.9091H182.656V67.3153H176.34V71.7386H182.247V73.1449H176.34V77.5938H182.758V79H174.755ZM199.553 79V65.9091H203.976C204.999 65.9091 205.839 66.0838 206.495 66.4332C207.151 66.7784 207.637 67.2536 207.952 67.8587C208.268 68.4638 208.425 69.152 208.425 69.9233C208.425 70.6946 208.268 71.3786 207.952 71.9751C207.637 72.5717 207.153 73.0405 206.501 73.3814C205.849 73.718 205.016 73.8864 204.002 73.8864H200.422V72.4545H203.951C204.65 72.4545 205.212 72.3523 205.638 72.1477C206.069 71.9432 206.38 71.6534 206.571 71.2784C206.768 70.8991 206.866 70.4474 206.866 69.9233C206.866 69.3991 206.768 68.9411 206.571 68.549C206.375 68.157 206.062 67.8544 205.632 67.6413C205.201 67.424 204.633 67.3153 203.925 67.3153H201.138V79H199.553ZM205.715 73.1193L208.937 79H207.096L203.925 73.1193H205.715ZM232.266 69.1818C232.189 68.5341 231.878 68.0312 231.333 67.6733C230.787 67.3153 230.118 67.1364 229.325 67.1364C228.746 67.1364 228.239 67.2301 227.804 67.4176C227.374 67.6051 227.037 67.8629 226.794 68.1911C226.556 68.5192 226.436 68.892 226.436 69.3097C226.436 69.6591 226.519 69.9595 226.686 70.2109C226.856 70.4581 227.073 70.6648 227.338 70.831C227.602 70.9929 227.879 71.1271 228.169 71.2337C228.458 71.3359 228.725 71.419 228.968 71.483L230.297 71.8409C230.638 71.9304 231.017 72.054 231.435 72.2116C231.857 72.3693 232.259 72.5845 232.643 72.8572C233.031 73.1257 233.35 73.4709 233.602 73.8928C233.853 74.3146 233.979 74.8324 233.979 75.446C233.979 76.1534 233.794 76.7926 233.423 77.3636C233.056 77.9347 232.519 78.3885 231.812 78.7251C231.109 79.0618 230.254 79.2301 229.249 79.2301C228.311 79.2301 227.499 79.0788 226.813 78.7763C226.132 78.4737 225.595 78.0518 225.203 77.5107C224.815 76.9695 224.595 76.3409 224.544 75.625H226.181C226.223 76.1193 226.389 76.5284 226.679 76.8523C226.973 77.1719 227.344 77.4105 227.791 77.5682C228.243 77.7216 228.729 77.7983 229.249 77.7983C229.854 77.7983 230.397 77.7003 230.879 77.5043C231.36 77.304 231.742 77.027 232.023 76.6733C232.304 76.3153 232.445 75.8977 232.445 75.4205C232.445 74.9858 232.323 74.6321 232.08 74.3594C231.838 74.0866 231.518 73.8651 231.122 73.6946C230.725 73.5241 230.297 73.375 229.837 73.2472L228.226 72.7869C227.203 72.4929 226.394 72.0732 225.797 71.5277C225.2 70.9822 224.902 70.2685 224.902 69.3864C224.902 68.6534 225.1 68.0142 225.497 67.4688C225.897 66.919 226.434 66.4929 227.107 66.1903C227.785 65.8835 228.541 65.7301 229.377 65.7301C230.22 65.7301 230.97 65.8814 231.627 66.1839C232.283 66.4822 232.803 66.8913 233.186 67.4112C233.574 67.9311 233.779 68.5213 233.8 69.1818H232.266ZM50.2085 101.179C49.3477 101.179 48.6062 101.021 47.984 100.706C47.3619 100.391 46.8825 99.9581 46.5458 99.4084C46.2092 98.8587 46.0408 98.2301 46.0408 97.5227C46.0408 96.9773 46.1559 96.4936 46.386 96.0717C46.6204 95.6456 46.9421 95.2514 47.3512 94.8892C47.7646 94.5227 48.2397 94.1562 48.7766 93.7898L50.6687 92.3835C51.0394 92.1406 51.3356 91.8807 51.5572 91.6037C51.783 91.3267 51.896 90.9645 51.896 90.517C51.896 90.1847 51.7489 89.8629 51.4549 89.5518C51.1651 89.2408 50.7837 89.0852 50.3107 89.0852C49.9783 89.0852 49.6843 89.1705 49.4286 89.3409C49.1772 89.5071 48.9791 89.7202 48.8342 89.9801C48.6935 90.2358 48.6232 90.5 48.6232 90.7727C48.6232 91.0795 48.7063 91.3906 48.8725 91.706C49.043 92.017 49.2582 92.3366 49.5181 92.6648C49.7823 92.9886 50.0551 93.321 50.3363 93.6619L56.3448 101H54.5295L49.5693 95.017C49.109 94.4631 48.6914 93.9602 48.3164 93.5085C47.9414 93.0568 47.6431 92.6115 47.4215 92.1726C47.1999 91.7337 47.0891 91.2585 47.0891 90.7472C47.0891 90.1591 47.2191 89.6435 47.4791 89.2003C47.7433 88.7528 48.1119 88.4055 48.5849 88.1584C49.0622 87.907 49.6204 87.7812 50.2596 87.7812C50.9158 87.7812 51.4805 87.9091 51.9535 88.1648C52.4265 88.4162 52.7908 88.7507 53.0465 89.1683C53.3022 89.5817 53.4301 90.0312 53.4301 90.517C53.4301 91.1435 53.2745 91.6868 52.9634 92.147C52.6524 92.6072 52.2283 93.0355 51.6914 93.4318L49.0835 95.375C48.4954 95.8097 48.097 96.2315 47.8881 96.6406C47.6793 97.0497 47.5749 97.3437 47.5749 97.5227C47.5749 97.9318 47.6815 98.3132 47.8945 98.6669C48.1076 99.0206 48.408 99.3061 48.7958 99.5234C49.1836 99.7408 49.6374 99.8494 50.1573 99.8494C50.6516 99.8494 51.1332 99.745 51.6019 99.5362C52.0707 99.3232 52.4947 99.0163 52.8739 98.6158C53.2575 98.2152 53.56 97.7337 53.7816 97.1712C54.0075 96.6087 54.1204 95.9759 54.1204 95.2727H55.5778C55.5778 96.142 55.4776 96.8516 55.2774 97.4013C55.0771 97.951 54.8512 98.3814 54.5998 98.6925C54.3484 99.0036 54.146 99.2358 53.9926 99.3892C53.9414 99.4531 53.8945 99.517 53.8519 99.581C53.8093 99.6449 53.7624 99.7088 53.7113 99.7727C53.2894 100.246 52.7568 100.599 52.1133 100.834C51.4698 101.064 50.8349 101.179 50.2085 101.179ZM91.3618 87.9091H93.2538L97.7027 98.7756H97.8561L102.305 87.9091H104.197V101H102.714V91.054H102.586L98.4953 101H97.0635L92.9726 91.054H92.8447V101H91.3618V87.9091ZM132.461 94.4545C132.461 95.8352 132.212 97.0284 131.713 98.0341C131.214 99.0398 130.531 99.8153 129.661 100.361C128.792 100.906 127.799 101.179 126.683 101.179C125.566 101.179 124.573 100.906 123.704 100.361C122.834 99.8153 122.151 99.0398 121.652 98.0341C121.153 97.0284 120.904 95.8352 120.904 94.4545C120.904 93.0739 121.153 91.8807 121.652 90.875C122.151 89.8693 122.834 89.0938 123.704 88.5483C124.573 88.0028 125.566 87.7301 126.683 87.7301C127.799 87.7301 128.792 88.0028 129.661 88.5483C130.531 89.0938 131.214 89.8693 131.713 90.875C132.212 91.8807 132.461 93.0739 132.461 94.4545ZM130.927 94.4545C130.927 93.321 130.737 92.3643 130.358 91.5845C129.983 90.8047 129.474 90.2145 128.83 89.8139C128.191 89.4134 127.475 89.2131 126.683 89.2131C125.89 89.2131 125.172 89.4134 124.528 89.8139C123.889 90.2145 123.38 90.8047 123.001 91.5845C122.626 92.3643 122.438 93.321 122.438 94.4545C122.438 95.5881 122.626 96.5447 123.001 97.3246C123.38 98.1044 123.889 98.6946 124.528 99.0952C125.172 99.4957 125.89 99.696 126.683 99.696C127.475 99.696 128.191 99.4957 128.83 99.0952C129.474 98.6946 129.983 98.1044 130.358 97.3246C130.737 96.5447 130.927 95.5881 130.927 94.4545ZM149.088 87.9091L152.974 98.929H153.128L157.014 87.9091H158.676L153.869 101H152.233L147.426 87.9091H149.088ZM174.755 101V87.9091H182.656V89.3153H176.34V93.7386H182.247V95.1449H176.34V99.5938H182.758V101H174.755ZM199.553 101V87.9091H203.976C204.999 87.9091 205.839 88.0838 206.495 88.4332C207.151 88.7784 207.637 89.2536 207.952 89.8587C208.268 90.4638 208.425 91.152 208.425 91.9233C208.425 92.6946 208.268 93.3786 207.952 93.9751C207.637 94.5717 207.153 95.0405 206.501 95.3814C205.849 95.718 205.016 95.8864 204.002 95.8864H200.422V94.4545H203.951C204.65 94.4545 205.212 94.3523 205.638 94.1477C206.069 93.9432 206.38 93.6534 206.572 93.2784C206.768 92.8991 206.866 92.4474 206.866 91.9233C206.866 91.3991 206.768 90.9411 206.572 90.549C206.375 90.157 206.062 89.8544 205.632 89.6413C205.201 89.424 204.633 89.3153 203.925 89.3153H201.138V101H199.553ZM205.715 95.1193L208.937 101H207.096L203.925 95.1193H205.715ZM232.266 91.1818C232.189 90.5341 231.878 90.0312 231.333 89.6733C230.787 89.3153 230.118 89.1364 229.325 89.1364C228.746 89.1364 228.239 89.2301 227.804 89.4176C227.374 89.6051 227.037 89.8629 226.794 90.1911C226.556 90.5192 226.436 90.892 226.436 91.3097C226.436 91.6591 226.519 91.9595 226.686 92.2109C226.856 92.4581 227.073 92.6648 227.338 92.831C227.602 92.9929 227.879 93.1271 228.169 93.2337C228.458 93.3359 228.725 93.419 228.968 93.483L230.297 93.8409C230.638 93.9304 231.017 94.054 231.435 94.2116C231.857 94.3693 232.259 94.5845 232.643 94.8572C233.031 95.1257 233.35 95.4709 233.602 95.8928C233.853 96.3146 233.979 96.8324 233.979 97.446C233.979 98.1534 233.794 98.7926 233.423 99.3636C233.056 99.9347 232.519 100.388 231.812 100.725C231.109 101.062 230.254 101.23 229.249 101.23C228.311 101.23 227.499 101.079 226.813 100.776C226.132 100.474 225.595 100.052 225.203 99.5107C224.815 98.9695 224.595 98.3409 224.544 97.625H226.181C226.223 98.1193 226.389 98.5284 226.679 98.8523C226.973 99.1719 227.344 99.4105 227.791 99.5682C228.243 99.7216 228.729 99.7983 229.249 99.7983C229.854 99.7983 230.397 99.7003 230.879 99.5043C231.36 99.304 231.742 99.027 232.023 98.6733C232.304 98.3153 232.445 97.8977 232.445 97.4205C232.445 96.9858 232.323 96.6321 232.08 96.3594C231.838 96.0866 231.518 95.8651 231.122 95.6946C230.725 95.5241 230.297 95.375 229.837 95.2472L228.226 94.7869C227.203 94.4929 226.394 94.0732 225.797 93.5277C225.2 92.9822 224.902 92.2685 224.902 91.3864C224.902 90.6534 225.1 90.0142 225.497 89.4688C225.897 88.919 226.434 88.4929 227.107 88.1903C227.785 87.8835 228.541 87.7301 229.377 87.7301C230.22 87.7301 230.97 87.8814 231.627 88.1839C232.283 88.4822 232.803 88.8913 233.186 89.4112C233.574 89.9311 233.779 90.5213 233.8 91.1818H232.266Z" fill="black"/>
<defs>
<clipPath id="clip0_0_6968">
<rect width="235" height="61" fill="white"/>
</clipPath>
</defs>
</svg>
