<svg width="24" height="15" viewBox="0 0 24 15" fill="none" xmlns="http://www.w3.org/2000/svg">
<rect width="24" height="15" fill="white"/>
<path fill-rule="evenodd" clip-rule="evenodd" d="M12 13.2084C10.729 14.3256 9.08028 15 7.27869 15C3.25878 15 0 11.6421 0 7.5C0 3.35786 3.25878 0 7.27869 0C9.08028 0 10.729 0.674437 12 1.79165C13.271 0.674437 14.9197 0 16.7213 0C20.7412 0 24 3.35786 24 7.5C24 11.6421 20.7412 15 16.7213 15C14.9197 15 13.271 14.3256 12 13.2084Z" fill="#ED0006"/>
<path fill-rule="evenodd" clip-rule="evenodd" d="M12 13.2084C13.565 11.8327 14.5574 9.78577 14.5574 7.5C14.5574 5.21423 13.565 3.16729 12 1.79165C13.271 0.674437 14.9197 0 16.7213 0C20.7412 0 24 3.35786 24 7.5C24 11.6421 20.7412 15 16.7213 15C14.9197 15 13.271 14.3256 12 13.2084Z" fill="#F9A000"/>
<path fill-rule="evenodd" clip-rule="evenodd" d="M12.0007 13.2083C13.5657 11.8326 14.5581 9.7857 14.5581 7.49995C14.5581 5.2142 13.5657 3.16726 12.0007 1.79163C10.4357 3.16726 9.44336 5.2142 9.44336 7.49995C9.44336 9.7857 10.4357 11.8326 12.0007 13.2083Z" fill="#FF5E00"/>
</svg>
