<svg width="18" height="18" viewBox="0 0 18 18" fill="none" xmlns="http://www.w3.org/2000/svg">
<path d="M1 4C1 3.06812 1 2.60218 1.15224 2.23463C1.35523 1.74458 1.74458 1.35523 2.23463 1.15224C2.60218 1 3.06812 1 4 1C4.93188 1 5.39782 1 5.76537 1.15224C6.25542 1.35523 6.64477 1.74458 6.84776 2.23463C7 2.60218 7 3.06812 7 4C7 4.93188 7 5.39782 6.84776 5.76537C6.64477 6.25542 6.25542 6.64477 5.76537 6.84776C5.39782 7 4.93188 7 4 7C3.06812 7 2.60218 7 2.23463 6.84776C1.74458 6.64477 1.35523 6.25542 1.15224 5.76537C1 5.39782 1 4.93188 1 4Z" stroke="#262262" stroke-width="1.5"/>
<path d="M11 4C11 3.06812 11 2.60218 11.1522 2.23463C11.3552 1.74458 11.7446 1.35523 12.2346 1.15224C12.6022 1 13.0681 1 14 1C14.9319 1 15.3978 1 15.7654 1.15224C16.2554 1.35523 16.6448 1.74458 16.8478 2.23463C17 2.60218 17 3.06812 17 4C17 4.93188 17 5.39782 16.8478 5.76537C16.6448 6.25542 16.2554 6.64477 15.7654 6.84776C15.3978 7 14.9319 7 14 7C13.0681 7 12.6022 7 12.2346 6.84776C11.7446 6.64477 11.3552 6.25542 11.1522 5.76537C11 5.39782 11 4.93188 11 4Z" stroke="#262262" stroke-width="1.5"/>
<path d="M1 14C1 13.0681 1 12.6022 1.15224 12.2346C1.35523 11.7446 1.74458 11.3552 2.23463 11.1522C2.60218 11 3.06812 11 4 11C4.93188 11 5.39782 11 5.76537 11.1522C6.25542 11.3552 6.64477 11.7446 6.84776 12.2346C7 12.6022 7 13.0681 7 14C7 14.9319 7 15.3978 6.84776 15.7654C6.64477 16.2554 6.25542 16.6448 5.76537 16.8478C5.39782 17 4.93188 17 4 17C3.06812 17 2.60218 17 2.23463 16.8478C1.74458 16.6448 1.35523 16.2554 1.15224 15.7654C1 15.3978 1 14.9319 1 14Z" stroke="#262262" stroke-width="1.5"/>
<path d="M11 14C11 13.0681 11 12.6022 11.1522 12.2346C11.3552 11.7446 11.7446 11.3552 12.2346 11.1522C12.6022 11 13.0681 11 14 11C14.9319 11 15.3978 11 15.7654 11.1522C16.2554 11.3552 16.6448 11.7446 16.8478 12.2346C17 12.6022 17 13.0681 17 14C17 14.9319 17 15.3978 16.8478 15.7654C16.6448 16.2554 16.2554 16.6448 15.7654 16.8478C15.3978 17 14.9319 17 14 17C13.0681 17 12.6022 17 12.2346 16.8478C11.7446 16.6448 11.3552 16.2554 11.1522 15.7654C11 15.3978 11 14.9319 11 14Z" stroke="#262262" stroke-width="1.5"/>
</svg>
