<svg width="22" height="22" viewBox="0 0 22 22" fill="none" xmlns="http://www.w3.org/2000/svg">
<rect x="1" y="1" width="20" height="20" rx="10" stroke="#262262" stroke-width="1.5"/>
<path d="M12.9168 7.00016C12.9168 8.05871 12.0587 8.91683 11.0002 8.91683V10.4168C12.8871 10.4168 14.4168 8.88714 14.4168 7.00016H12.9168ZM11.0002 8.91683C9.94162 8.91683 9.0835 8.05871 9.0835 7.00016H7.5835C7.5835 8.88714 9.11319 10.4168 11.0002 10.4168V8.91683ZM9.0835 7.00016C9.0835 5.94162 9.94162 5.0835 11.0002 5.0835V3.5835C9.11319 3.5835 7.5835 5.11319 7.5835 7.00016H9.0835ZM11.0002 5.0835C12.0587 5.0835 12.9168 5.94162 12.9168 7.00016H14.4168C14.4168 5.11319 12.8871 3.5835 11.0002 3.5835V5.0835ZM9.00016 12.4168H13.0002V10.9168H9.00016V12.4168ZM13.0002 16.2502H9.00016V17.7502H13.0002V16.2502ZM9.00016 16.2502C7.94162 16.2502 7.0835 15.392 7.0835 14.3335H5.5835C5.5835 16.2205 7.11319 17.7502 9.00016 17.7502V16.2502ZM14.9168 14.3335C14.9168 15.392 14.0587 16.2502 13.0002 16.2502V17.7502C14.8871 17.7502 16.4168 16.2205 16.4168 14.3335H14.9168ZM13.0002 12.4168C14.0587 12.4168 14.9168 13.275 14.9168 14.3335H16.4168C16.4168 12.4465 14.8871 10.9168 13.0002 10.9168V12.4168ZM9.00016 10.9168C7.11319 10.9168 5.5835 12.4465 5.5835 14.3335H7.0835C7.0835 13.275 7.94162 12.4168 9.00016 12.4168V10.9168Z" fill="#262262"/>
</svg>
