<svg width="122" height="24" viewBox="0 0 122 24" fill="none" xmlns="http://www.w3.org/2000/svg">
<path d="M7 12L61 12" stroke="#4871FF" stroke-width="5"/>
<path d="M61 12L115 12" stroke="#C8D4FF" stroke-width="5" stroke-dasharray="10 3"/>
<path d="M7 5C10.866 5 14 8.13401 14 12C14 15.866 10.866 19 7 19C3.13401 19 -1.36992e-07 15.866 -3.0598e-07 12C-4.74968e-07 8.13401 3.13401 5 7 5Z" fill="#4871FF"/>
<path d="M7 5C10.866 5 14 8.13401 14 12C14 15.866 10.866 19 7 19C3.13401 19 -1.36992e-07 15.866 -3.0598e-07 12C-4.74968e-07 8.13401 3.13401 5 7 5Z" stroke="#C8D4FF"/>
<circle cx="61" cy="12" r="9.5" transform="rotate(-90 61 12)" fill="white" stroke="#C8D4FF" stroke-width="5"/>
<circle cx="115" cy="12" r="4.5" transform="rotate(-90 115 12)" fill="white" stroke="#C8D4FF" stroke-width="5"/>
</svg>
