<svg width="28" height="10" viewBox="0 0 28 10" fill="none" xmlns="http://www.w3.org/2000/svg">
<path fill-rule="evenodd" clip-rule="evenodd" d="M7.00031 9.9222H4.57708L2.75995 2.16448C2.6737 1.80763 2.49057 1.49214 2.2212 1.34346C1.54893 0.969792 0.808137 0.672413 0 0.52243V0.223758H3.90363C4.44239 0.223758 4.84646 0.672413 4.9138 1.19347L5.85663 6.78937L8.27868 0.223758H10.6346L7.00031 9.9222ZM11.9815 9.9222H9.69297L11.5774 0.223758H13.866L11.9815 9.9222ZM16.8267 2.91044C16.894 2.38808 17.2981 2.08941 17.7695 2.08941C18.5103 2.01442 19.3172 2.1644 19.9907 2.53677L20.3948 0.448655C19.7213 0.149982 18.9805 0 18.3083 0C16.0871 0 14.4708 1.34338 14.4708 3.20782C14.4708 4.62618 15.6156 5.37092 16.4238 5.81958C17.2981 6.26694 17.6348 6.56561 17.5675 7.01298C17.5675 7.68402 16.894 7.98269 16.2217 7.98269C15.4136 7.98269 14.6055 7.75901 13.8659 7.38535L13.4618 9.47476C14.2699 9.84713 15.1442 9.99711 15.9524 9.99711C18.4429 10.0708 19.9907 8.72872 19.9907 6.7143C19.9907 4.17753 16.8267 4.02884 16.8267 2.91044ZM28.0002 9.9222L26.183 0.223758H24.2312C23.8272 0.223758 23.4231 0.52243 23.2884 0.969792L19.9235 9.9222H22.2794L22.7496 8.50512H25.6443L25.9137 9.9222H28.0002ZM24.568 2.83531L25.2403 6.49049H23.3558L24.568 2.83531Z" fill="#172B85"/>
</svg>
